<?xml version="1.0" standalone="no"?>
<!DOCTYPE svg PUBLIC "-//W3C//DTD SVG 1.1//EN" "http://www.w3.org/Graphics/SVG/1.1/DTD/svg11.dtd">
<!--
Copyright (C) (See commit logs on github.com/robhz786/strf)
Distributed under the Boost Software License, Version 1.0.
(See accompanying file LICENSE_1_0.txt or copy at
http://www.boost.org/LICENSE_1_0.txt)
-->

<svg
   width="700px"
   height="234px"
   xmlns:svg="http://www.w3.org/2000/svg"
   xmlns="http://www.w3.org/2000/svg">

  <style>
    /* <![CDATA[ */
    .code {
    font-style:normal;
    font-family:"Courier New";
    font-size:95%;
    }
    .repl {
    font-style:italic;
    font-family:Arial;
    font-size:95%;
    }
    rect{
    fill:#d7e3f4;
    stroke:black;
    stroke-width:1.5;
    }
    path{
    stroke:black;
    stroke-width:1.5;
    fill:white;
    }
    path.arrow{
    fill:black;
    stroke-width:0;
    }
    a:hover {
    outline: dotted 1px blue;
    /*stroke:blue;*/
    }
    /* ]]> */
  </style>
  <a href="quick_reference.html#facets" target="_parent">
      <rect width="170" height="28" rx="10" ry="10" x="200" y="5"/>

      <text x="205" y="24" >
        <tspan class="code">.with(</tspan>
        <tspan class="repl">facet_objs...</tspan>
        <tspan class="code">)</tspan>
      </text>
  </a>

  <a href="quick_reference.html#reserve" target="_parent">
    <rect width="170" height="28" rx="10" ry="10" x="200" y="49"/>
    <text x="205" y="68" >
      <tspan class="code">.no_reserve()</tspan>
    </text>
  </a>

  <a href="quick_reference.html#reserve" target="_parent">
    <rect width="170" height="28" rx="10" ry="10" x="200" y="93"/>
    <text x="205" y="112" >
      <tspan class="code">.reserve(</tspan>
      <tspan class="repl">size</tspan>
      <tspan class="code">)</tspan>
    </text>
  </a>

  <a href="quick_reference.html#reserve" target="_parent">
    <rect width="170" height="28" rx="10" ry="10" x="200" y="137"/>
    <text x="205" y="156" class="code">.reserve_calc()</text>
  </a>

  <a href="quick_reference.html#destinations" target="_parent">
    <rect width="100" height="28" rx="10" ry="10" x="30" y="181"/>
    <text x="55" y="200" class="repl">printer</text>
  </a>

  <path d="M130 195 H410"/>
  <path d="M189 30  V184"/>
  <path d="M381 30  V184"/>

  <path d="M200 19 A11 11 0 0 0 189 30"/>
  <path d="M370 19 A11 11 0 0 1 381 30"/>

  <path d="M200 63 A11 11 0 0 0 189 74"/>
  <path d="M370 63 A11 11 0 0 1 381 74"/>

  <path d="M200 107 A11 11 0 0 0 189 118"/>
  <path d="M370 107 A11 11 0 0 1 381 118"/>

  <path d="M200 151 A11 11 0 0 0 189 162"/>
  <path d="M370 151 A11 11 0 0 1 381 162"/>

  <path d="M200 195 A11 11 0 0 1 189 184"/>
  <path d="M370 195 A11 11 0 0 0 381 184"/>

  <path d="M410 195 A11 11 0 0 0 421 184"/>
  <path d="M421 184 A11 11 0 0 1 432 173"/>

  <path d="M410 195 A11 11 0 0 1 421 206"/>
  <path d="M421 206 A11 11 0 0 0 432 214"/>

  <a href="quick_reference.html#input_types" target="_parent">
    <rect width="195" height="28" rx="10" ry="10" x="432" y="159"/>
    <text x="450" y="178">
      <tspan class="code">(</tspan>
      <tspan class="repl">args...</tspan>
      <tspan class="code">)</tspan>
    </text>
  </a>
  <a href="quick_reference.html#tr_string" target="_parent">
    <rect width="195" height="28" rx="10" ry="10" x="432" y="203"/>
    <text x="440" y="222">
      <tspan class="code">.tr(</tspan>
      <tspan class="repl">tr-string</tspan>
      <tspan class="code">,</tspan>
      <tspan class="repl">args...</tspan>
      <tspan class="code">)</tspan>
    </text>
  </a>

  <!--
  <path d="M218 151 A11 11 0 0 0 229 140"/>
  <path d="M218 151 A11 11 0 0 0 218 173"/>

  <path d="M432 151 A11 11 0 0 1 421 140"/>
  <path d="M432 151 A11 11 0 0 1 432 173"/>

  <path d="M218 173 H432"/>
  <path class="arrow" d="M332 151 l -17 -4 v 8"/>
  <path class="arrow" d="M318 173 l  17 -4 v 8"/>
  -->

  <path class="arrow" d="M170 195 l -17 -4 v 8"/>

</svg>
