<?xml version="1.0" standalone="no"?>
<!DOCTYPE svg PUBLIC "-//W3C//DTD SVG 1.1//EN" "http://www.w3.org/Graphics/SVG/1.1/DTD/svg11.dtd">
<!--
Copyright (C) (See commit logs on github.com/robhz786/strf)
Distributed under the Boost Software License, Version 1.0.
(See accompanying file LICENSE_1_0.txt or copy at
http://www.boost.org/LICENSE_1_0.txt)
-->

<svg
   viewBox="75 5 615 280"
   xmlns:svg="http://www.w3.org/2000/svg"
   xmlns="http://www.w3.org/2000/svg">

  <style>
    /* <![CDATA[ */
    .code {
    font-style:normal;
    font-family:"Courier New";
    font-size:90%;
    }
    .repl {
    font-style:italic;
    font-family:Arial;
    font-size:95%;
    }
    rect{
    fill:#d7e3f4;
    stroke:black;
    stroke-width:1.2;
    }
    path{
    stroke:black;
    stroke-width:1.2;
    fill:transparent;
    }
    path.arrow{
    fill:black;
    stroke-width:0;
    }
    a:hover {
    outline: dotted 1px blue;
    /*stroke:blue;*/
    }
    /* ]]> */
  </style>

  <symbol>
  <path d="M0 0 a11 11 0 0 1 +11 +11"/> <!--rd-->
  <path d="M0 0 a11 11 0 0 0 +11 -11"/> <!--ru-->
  <path d="M0 0 a11 11 0 0 0 -11 +11"/> <!--ld-->
  <path d="M0 0 a11 11 0 0 1 -11 -11"/> <!--lu-->
  <path d="M0 0 a11 11 0 0 0 -11 -11"/> <!--ul-->
  <path d="M0 0 a11 11 0 0 1 -11 +11"/> <!--dl-->
  </symbol>

  <rect width="80" height="28" x="100" y="186" rx="11" ry="11"/>
  <text x="115" y="204" >
    <tspan class="repl">target</tspan>
  </text>

  <path d="M180 200 H400"/>

  <path d="M220  24 a11 11 0 0 0 -11 +11 v154 a11 11 0 0 0 11 11"/>
  <path d="M220  68 a11 11 0 0 0 -11 +11"/> <!--ld-->
  <path d="M220 112 a11 11 0 0 0 -11 +11"/> <!--ld-->
  <path d="M220 156 a11 11 0 0 0 -11 +11"/> <!--ld-->

  <path d="M370  24 a11 11 0 0 1 +11 +11 v154 a11 11 0 0 1 -11 +11"/>
  <path d="M370  68 a11 11 0 0 1 +11 +11"/> <!--rd-->
  <path d="M370 112 a11 11 0 0 1 +11 +11"/> <!--rd-->
  <path d="M370 156 a11 11 0 0 1 +11 +11"/> <!--rd-->

  <rect width="150" height="28" x="220"  y="10" rx="11" ry="11"/>
  <rect width="150" height="28" x="220"  y="54" rx="11" ry="11"/>
  <rect width="150" height="28" x="220"  y="98" rx="11" ry="11"/>
  <rect width="150" height="28" x="220" y="142" rx="11" ry="11"/>

  <text x="225" y="28" >
    <tspan class="code">.with(</tspan>
    <tspan class="repl">fargs...</tspan>
    <tspan class="code">)</tspan>
  </text>
  <text x="225" y="74" >
      <tspan class="code">.reserve(</tspan>
      <tspan class="repl">size</tspan>
      <tspan class="code">)</tspan>
  </text>
  <text x="225" y="116" class="code"> .reserve_calc() </text>
  <text x="225" y="160" class="code"> .no_reserve()   </text>

  <path d="M411 189  v-44 a11 11 0 0 1 +11 -11"/> <!-- arc ur -->
  <path d="M411 189       a11 11 0 0 1 +11 -11"/> <!-- arc ur -->
  <path d="M400 200       a10 11 0 0 0 +11 -11"/> <!-- arc ru -->
  <path d="M400 200       a11 11 0 0 1 +11 +11"/> <!-- arc rd -->
  <path d="M411 211       a11 11 0 0 0 +11 +11"/> <!-- arc dr -->
  <path d="M411 211  v44  a11 11 0 0 0 +11 +11"/> <!-- arc dr -->

  <rect width="265" height="28" x="422" y="120" rx="11" ry="11"/>
  <rect width="265" height="28" x="422" y="164" rx="11" ry="11"/>
  <rect width="265" height="28" x="422" y="208" rx="11" ry="11"/>
  <rect width="265" height="28" x="422" y="252" rx="11" ry="11"/>
  <!-- 265 + 422 = 687 -->

  <text x="430" y="138">
    <tspan class="code">(</tspan>
    <tspan class="repl">fargs... , pargs...</tspan>
    <tspan class="code">)</tspan>
  </text>
  <text x="430" y="184">
    <tspan class="code">.ln(</tspan>
    <tspan class="repl">fargs... , pargs...</tspan>
    <tspan class="code">)</tspan>
  </text>
  <text x="430" y="226">
    <tspan class="code">.tr(</tspan>
    <tspan class="repl">fargs... , tr-string , pargs...</tspan>
    <tspan class="code">)</tspan>
  </text>
  <text x="430" y="270">
    <tspan class="code">.trln(</tspan>
    <tspan class="repl">fargs... , tr-string , pargs...</tspan>
    <tspan class="code">)</tspan>
  </text>

</svg>
